<?xml version="1.0" encoding="UTF-8"?>
<svg version="1.1" xmlns="http://www.w3.org/2000/svg" width="968" height="968">
<path d="M0 0 C2.2193754 0.00113107 4.43875229 0.00048957 6.65812683 -0.00177002 C12.6260133 -0.00290797 18.59357186 0.02045123 24.56138277 0.04852581 C30.81933671 0.07369406 37.07729988 0.07589355 43.33529663 0.08062744 C53.82042948 0.09160901 64.30545138 0.11651765 74.79052734 0.15234375 C85.58056045 0.18917305 96.37056109 0.21743102 107.16064453 0.234375 C108.161662 0.23595134 108.161662 0.23595134 109.18290205 0.23755953 C112.53144646 0.24278044 115.8799911 0.24783509 119.22853589 0.25280714 C146.91985526 0.29450935 174.61104226 0.36477308 202.30224609 0.45410156 C202.30284318 1.26017867 202.30344027 2.06625577 202.30405545 2.89675945 C202.33997959 50.71254088 202.39666491 98.52825951 202.48016705 146.34398275 C202.49018404 152.0902428 202.50002825 157.83650314 202.50976562 163.58276367 C202.511707 164.72670047 202.51364837 165.87063726 202.51564857 167.04923881 C202.54663692 185.55141655 202.56364038 204.05358191 202.57544032 222.5557807 C202.58786828 241.55253652 202.61540681 260.5492275 202.65685916 279.54594237 C202.68194743 291.26004533 202.69536678 302.9740407 202.69367567 314.68817092 C202.69364582 322.73009057 202.70834477 330.77190094 202.73441038 338.81377798 C202.74900189 343.44773714 202.75730625 348.0814722 202.74804878 352.71545029 C202.73969488 356.96939996 202.75009792 361.22290152 202.77458271 365.47678513 C202.78021537 367.00465847 202.7793313 368.53257502 202.77075854 370.06043469 C202.69506913 384.83157879 205.77578841 398.47031276 210.92724609 412.32910156 C211.43602295 413.70582031 211.43602295 413.70582031 211.95507812 415.11035156 C223.59547921 445.63290213 243.33301225 472.23564586 273.63037109 485.96191406 C288.79037264 492.07718038 303.55491513 493.60297243 319.74389648 493.59594727 C321.75551813 493.60128096 323.76713977 493.60662063 325.77876079 493.61218393 C327.92310053 493.61735083 330.06743422 493.62028475 332.21177864 493.62276649 C336.70774708 493.62873403 341.20363873 493.64532889 345.6995697 493.66410828 C347.24644943 493.67044428 348.7933292 493.67676992 350.34020901 493.68308544 C351.1144943 493.68625125 351.8887796 493.68941706 352.68652809 493.69267881 C363.13646422 493.73454296 373.58636248 493.76769698 384.03637695 493.7800293 C391.10832467 493.78846019 398.18007916 493.81113114 405.25193018 493.84938496 C408.98091321 493.86897099 412.70960865 493.88160912 416.43864632 493.87655067 C449.47807049 493.8402534 477.10932546 499.88375461 501.66943359 523.75488281 C522.28274335 545.54507703 531.66521414 574.67065562 531.54275513 604.20317078 C531.54362862 605.78008923 531.54538225 607.35700739 531.54793346 608.93392402 C531.55238267 613.2417069 531.54443688 617.54938939 531.53437734 621.8571595 C531.52570998 626.51208789 531.52866532 631.16701099 531.53018188 635.82194519 C531.53122866 643.87850464 531.52497375 651.93503159 531.51370621 659.99158287 C531.49742604 671.63988288 531.49224063 683.28816724 531.48973022 694.9364774 C531.48535707 713.83681089 531.47205827 732.73712707 531.453125 751.63745117 C531.43475638 769.99324456 531.42060468 788.34903325 531.41210938 806.70483398 C531.4113212 808.40308653 531.4113212 808.40308653 531.41051711 810.1356472 C531.40790697 815.81561727 531.40537957 821.49558737 531.4028933 827.17555749 C531.38217262 874.2684175 531.34695743 921.36125864 531.30224609 968.45410156 C478.73966658 968.52260635 426.17708339 968.58628473 373.61447144 968.62347412 C372.83596186 968.62402635 372.05745229 968.62457858 371.25535152 968.62514754 C354.334383 968.63712044 337.41341399 968.64820099 320.49244428 968.65836288 C312.19385598 968.66335203 303.8952678 968.66853827 295.59667969 968.67382812 C294.7708905 968.67435116 293.94510131 968.6748742 293.09428821 968.67541308 C266.35008368 968.69244457 239.60591306 968.72247941 212.86172905 968.75929045 C185.36812705 968.79706406 157.87454381 968.82165336 130.3809163 968.82976152 C126.4935669 968.83091406 122.60621757 968.83221661 118.71886826 968.83361053 C117.57129063 968.83401507 117.57129063 968.83401507 116.40052961 968.83442778 C104.10794391 968.83914626 91.81541634 968.85767576 79.5228543 968.8814297 C67.15095983 968.90504003 54.77912274 968.91395817 42.40720655 968.90810707 C35.70937523 968.90534114 29.01173438 968.90943299 22.31392288 968.93092346 C16.17318778 968.95048196 10.03273596 968.95131125 3.89198743 968.93769714 C1.67902468 968.93601614 -0.53395623 968.94101092 -2.74688362 968.95363429 C-33.45422175 969.11851134 -58.88423736 960.73131239 -81.29541016 938.92675781 C-104.92996097 914.05020587 -109.33140401 885.71021359 -109.21162412 852.55332571 C-109.20138748 848.47994877 -109.21455217 844.40663163 -109.22459745 840.3332634 C-109.23898465 833.20874481 -109.23864284 826.08434765 -109.22840881 818.95982361 C-109.21323168 808.36513647 -109.22103825 797.77055111 -109.23324204 787.17586458 C-109.25427202 768.24995303 -109.2524926 749.32409559 -109.24092639 730.39817894 C-109.23085446 713.83555588 -109.22824189 697.27295264 -109.23301697 680.71032715 C-109.23332251 679.61064467 -109.23362805 678.51096219 -109.23394285 677.377956 C-109.23518825 672.91371193 -109.23646186 668.44946787 -109.2377819 663.98522381 C-109.25001118 622.12809964 -109.23893472 580.27100988 -109.21739431 538.41389102 C-109.19841264 501.24628652 -109.20011118 464.07873684 -109.21923828 426.91113281 C-109.24066816 385.1293669 -109.2491438 343.34763139 -109.23678923 301.56586075 C-109.2355064 297.10986583 -109.23425504 292.65387091 -109.23301697 288.19787598 C-109.23270066 287.10073881 -109.23238435 286.00360165 -109.23205845 284.87321791 C-109.22751325 268.32314441 -109.23282092 251.77309291 -109.24293518 235.22302246 C-109.25438118 216.40023657 -109.25149376 197.57751313 -109.2298122 178.75473499 C-109.21808489 168.22712063 -109.2172745 157.69964159 -109.2323969 147.17203079 C-109.24139187 140.13227154 -109.23573845 133.09262037 -109.21837783 126.05287708 C-109.20889985 122.04709958 -109.20553084 118.04159013 -109.22000176 114.03582144 C-109.33318192 80.14227913 -103.57800228 52.943074 -79.17041016 27.85644531 C-56.63309431 6.44434054 -30.37759597 -0.21962449 0 0 Z " fill="#F0F0F0" transform="translate(108.69775390625,-0.4541015625)"/>
<path d="M0 0 C52.46724265 -0.06850492 104.9344888 -0.13218328 157.40176392 -0.16937256 C158.17886375 -0.16992479 158.95596358 -0.17047702 159.7566119 -0.17104598 C176.64694722 -0.18301889 193.53728303 -0.19409943 210.42761954 -0.20426132 C218.71118657 -0.20925046 226.99475347 -0.21443671 235.27832031 -0.21972656 C236.51476183 -0.22051112 236.51476183 -0.22051112 237.77618197 -0.22131152 C264.47188472 -0.23834295 291.1675535 -0.26837775 317.8632357 -0.30518888 C345.30701944 -0.34296266 372.7507844 -0.36755183 400.19459369 -0.37565996 C404.07491579 -0.3768125 407.95523783 -0.37811505 411.83555984 -0.37950897 C412.59922845 -0.37977866 413.36289705 -0.38004836 414.14970712 -0.38032622 C426.41997689 -0.38504466 438.6901884 -0.40357407 450.96043445 -0.42732814 C463.30992479 -0.4509387 475.65935765 -0.45985655 488.00886975 -0.45400551 C494.6945496 -0.45123961 501.38003864 -0.45533107 508.06569862 -0.4768219 C514.19533135 -0.49638085 520.32468029 -0.4972094 526.45432647 -0.48359558 C528.66325157 -0.48191462 530.87219486 -0.48690902 533.08108453 -0.49953273 C563.77383785 -0.66463669 589.19887454 7.73484485 611.59765625 29.52734375 C635.23220707 54.40389569 639.63365011 82.74388797 639.51387022 115.90077585 C639.50363357 119.9741528 639.51679827 124.04746993 639.52684355 128.12083817 C639.54123075 135.24535676 639.54088894 142.36975391 639.53065491 149.49427795 C639.51547777 160.08896509 639.52328434 170.68355045 639.53548814 181.27823699 C639.55651812 200.20414853 639.5547387 219.13000597 639.54317249 238.05592263 C639.53310055 254.61854568 639.53048798 271.18114893 639.53526306 287.74377441 C639.53572137 289.39329813 639.53572137 289.39329813 639.53618894 291.07614556 C639.53743435 295.54038963 639.53870795 300.0046337 639.540028 304.46887775 C639.55225727 346.32600192 639.54118081 388.18309168 639.51964041 430.04021055 C639.50065874 467.20781505 639.50235728 504.37536473 639.52148438 541.54296875 C639.54291426 583.32473466 639.55138989 625.10647017 639.53903532 666.88824081 C639.5377525 671.34423573 639.53650113 675.80023066 639.53526306 680.25622559 C639.53494675 681.35336275 639.53463044 682.45049991 639.53430455 683.58088365 C639.52975935 700.13095715 639.53506702 716.68100865 639.54518127 733.2310791 C639.55662728 752.053865 639.55373985 770.87658844 639.5320583 789.69936657 C639.52033098 800.22698093 639.5195206 810.75445998 639.534643 821.28207077 C639.54363797 828.32183002 639.53798454 835.36148119 639.52062392 842.40122448 C639.51114594 846.40700198 639.50777694 850.41251143 639.52224785 854.41828012 C639.63542802 888.31182243 633.88024837 915.51102756 609.47265625 940.59765625 C587.06636172 961.88528116 560.89128405 968.67668583 530.66943359 968.45410156 C528.48946656 968.45297042 526.30949801 968.45361213 524.12953186 968.45587158 C518.26907745 968.45700926 512.40895714 968.43365468 506.54857969 968.40557575 C500.40273496 968.38040276 494.25688077 968.37820765 488.11099243 968.37347412 C476.49862313 968.36109076 464.88640625 968.32833246 453.27410376 968.28807616 C440.04300437 968.24321333 426.81189733 968.22133505 413.58074069 968.20129442 C386.38707629 968.15959533 359.19354672 968.08933432 332 968 C331.99902319 967.2027665 331.99804638 966.40553299 331.99703997 965.5841409 C331.93871057 918.28603089 331.86487046 870.98796675 331.77101372 823.68991322 C331.75974617 818.005027 331.74860762 812.32014054 331.73754883 806.63525391 C331.7342433 804.93768587 331.7342433 804.93768587 331.730871 803.20582353 C331.69554231 784.9047879 331.6706532 766.60375232 331.64965298 748.30269529 C331.62785562 729.51047495 331.59476792 710.71829869 331.55129844 691.92611587 C331.52484946 680.33947814 331.5071044 668.75289528 331.50065396 657.16622888 C331.49537937 649.21028532 331.47909322 641.25441069 331.45433434 633.29850413 C331.44039006 628.71508756 331.43112187 624.13179418 331.43499184 619.5483551 C331.43843754 615.33944638 331.42783646 611.13079936 331.40676448 606.92194413 C331.40155699 605.41154864 331.4011968 603.90112553 331.40660437 602.39073075 C331.50869001 570.60098688 320.95570474 539.80979508 301 515 C300.30777344 514.09507812 300.30777344 514.09507812 299.6015625 513.171875 C282.74791524 491.68064695 253.17472296 479.76373693 226.83102036 476.27801514 C216.43770085 475.25735835 205.91158762 475.57632441 195.47691751 475.59268379 C191.78259558 475.59449384 188.08836884 475.57695765 184.39408875 475.56091309 C174.23994359 475.52018291 164.08580786 475.50854374 153.93159485 475.49738312 C144.60276051 475.48682818 135.27405049 475.46985439 125.94529217 475.42928743 C121.57445809 475.41111614 117.20392147 475.40697064 112.83305895 475.41422272 C110.76388357 475.41538788 108.69485798 475.40968537 106.6257019 475.40104675 C104.12392798 475.39063887 101.62207747 475.3904199 99.12031555 475.40339661 C71.69761563 475.20443889 48.74139009 462.90185136 29.3515625 444.484375 C19.518294 434.37192853 12.21856794 421.95663996 7.0625 408.875 C6.8044458 408.22072021 6.5463916 407.56644043 6.28051758 406.89233398 C1.45731841 393.78770341 -0.59633955 381.40896906 -0.48101807 367.49780273 C-0.48276734 365.90006774 -0.48627875 364.30233389 -0.49137473 362.70460606 C-0.50022873 358.3624003 -0.48444481 354.02059662 -0.46426249 349.678442 C-0.44686206 344.97793062 -0.45284302 340.27743886 -0.45587158 335.5769043 C-0.45796104 327.44891053 -0.44549452 319.32104599 -0.42292023 311.19308472 C-0.39030371 299.44168296 -0.37998337 287.69034318 -0.37496826 275.93890107 C-0.3662307 256.86938828 -0.33965701 237.79994425 -0.30175781 218.73046875 C-0.2649978 200.21484723 -0.23670559 181.69924443 -0.21972656 163.18359375 C-0.21867567 162.04079102 -0.21762477 160.8979883 -0.21654204 159.72055519 C-0.21132159 153.98700209 -0.20626683 148.25344887 -0.20129442 142.51989555 C-0.15988034 95.01321621 -0.08947398 47.50661147 0 0 Z " fill="#3F3F3F" transform="translate(329,0)"/>
</svg>
